<svg
  width="64"
  height="64"
  viewBox="0 0 64 64"
  xmlns="http://www.w3.org/2000/svg"
>
  <!-- Kwadratowa główka -->
  <rect x="12" y="14" width="40" height="38" rx="12" fill="#FF1493"/>

  <!-- Duże, szerokie uszy -->
  <!-- <path d="M20 22 L10 12 L24 20 Z" fill="#FF1493"/> -->
  <path d="M38 22 L10 12 L12 28 Z" fill="#FF1493"/>
  <path d="M52 28 L54 12 L40 16 Z" fill="#FF1493"/>

  <!-- Oczy -->
  <circle cx="26" cy="34" r="3.2" fill="#0F172A"/>
  <circle cx="38" cy="34" r="3.2" fill="#0F172A"/>

  <!-- Pyszczek -->
  <circle cx="32" cy="37" r="1.3" fill="#0F172A"/>
  <path d="M29 38 Q32 40 35 38" stroke="#0F172A" stroke-width="2" fill="none" stroke-linecap="round"/>

  <!-- Wąsy -->
  <line x1="18" y1="35" x2="26" y2="35" stroke="#0F172A" stroke-width="1" stroke-linecap="round"/>
  <line x1="18" y1="38" x2="26" y2="37" stroke="#0F172A" stroke-width="1" stroke-linecap="round"/>
  <line x1="46" y1="35" x2="38" y2="35" stroke="#0F172A" stroke-width="1" stroke-linecap="round"/>
  <line x1="46" y1="38" x2="38" y2="37" stroke="#0F172A" stroke-width="1" stroke-linecap="round"/>

  <!-- Mini‑motyw ML -->
  <circle cx="32" cy="25" r="6.5" fill="none" stroke="#0F172A" stroke-width="1.5"/>
  <circle cx="29" cy="23" r="1.4" fill="#0F172A"/>
  <circle cx="35" cy="23" r="1.4" fill="#0F172A"/>
  <circle cx="30" cy="27" r="1.4" fill="#0F172A"/>
  <circle cx="34" cy="27" r="1.4" fill="#0F172A"/>
  <line x1="29" y1="23" x2="35" y2="23" stroke="#0F172A" stroke-width="1.1"/>
  <line x1="29" y1="23" x2="30" y2="27" stroke="#0F172A" stroke-width="1.1"/>
  <line x1="35" y1="23" x2="34" y2="27" stroke="#0F172A" stroke-width="1.1"/>
  <line x1="30" y1="27" x2="34" y2="27" stroke="#0F172A" stroke-width="1.1"/>
</svg>
